#N canvas 808 70 1043 895 10;
#X obj 87 147 line~;
#X obj 148 208 snapshot~;
#X obj 148 260 print;
#X obj 106 64 bng 15 250 50 0 empty empty empty 17 7 0 10 -262144 -1
-1;
#X msg 210 137 bang;
#X floatatom 206 246 5 0 0 0 - - -;
#X obj 309 135 metro 1;
#X floatatom 58 103 5 0 0 0 - - -;
#X obj 9 179 osc~ 440;
#X obj 55 272 *~;
#X msg 215 53 0.5 5000;
#X obj 78 359 dac~;
#X msg 18 104 0;
#X msg 95 215 0.5;
#X floatatom 101 241 5 0 0 0 - - -;
#X msg 132 25 1000 3000;
#X connect 0 0 1 0;
#X connect 0 0 8 0;
#X connect 1 0 5 0;
#X connect 3 0 6 0;
#X connect 4 0 1 0;
#X connect 6 0 1 0;
#X connect 7 0 0 0;
#X connect 8 0 9 0;
#X connect 9 0 11 0;
#X connect 9 0 11 1;
#X connect 10 0 0 0;
#X connect 12 0 0 0;
#X connect 14 0 9 1;
#X connect 15 0 0 0;
