#N canvas 515 22 1106 989 10;
#X obj 143 308 dac~;
#X obj 122 129 osc~ 440;
#X msg 75 61 \; pd dsp 1 \;;
#X msg 183 54 \; pd dsp 0 \;;
#X msg 21 87 1000;
#X obj 226 155 osc~ 440;
#X floatatom 126 87 5 0 0 0 - - -;
#X obj 153 202 +~;
#X floatatom 239 110 5 0 0 0 - - -;
#X obj 170 259 *~;
#X floatatom 219 209 5 0 0 0 - - -;
#X obj 207 235 dbtorms;
#X obj 240 308 print;
#X obj 439 246 dac~;
#X connect 1 0 7 0;
#X connect 4 0 1 0;
#X connect 5 0 7 1;
#X connect 6 0 1 0;
#X connect 7 0 9 0;
#X connect 8 0 5 0;
#X connect 9 0 0 0;
#X connect 9 0 0 1;
#X connect 10 0 11 0;
#X connect 11 0 12 0;
#X connect 11 0 9 1;
