#N canvas 784 0 1075 1031 10;
#X obj 128 214 soundfiler;
#X obj 342 266 print;
#X obj 85 84 openpanel;
#X obj 66 22 bng 15 250 50 0 empty empty empty 17 7 0 10 -262144 -1
-1;
#X msg 87 150 read -resize \$1 array1;
#X obj 63 257 expr 44100 / $f1;
#X floatatom 65 308 5 0 0 0 - - -;
#X obj 65 327 phasor~;
#X obj 84 346 *~;
#X obj 72 371 tabread4~ array1;
#X obj 80 416 *~;
#X floatatom 268 309 5 0 0 0 - - -;
#X obj 254 378 line~;
#X msg 268 345 \$1 20;
#X obj 78 446 hip~ 5;
#X obj 64 484 dac~, f 7;
#X obj 340 329 unsig~;
#X obj 151 307 * 1;
#X floatatom 198 255 5 0 0 0 - - -;
#X floatatom 22 279 5 0 0 0 - - -;
#X obj 139 280 bng 15 250 50 0 empty empty empty 17 7 0 10 -262144
-1 -1;
#X connect 0 0 5 0;
#X connect 0 0 8 1;
#X connect 0 1 1 0;
#X connect 2 0 4 0;
#X connect 3 0 2 0;
#X connect 4 0 0 0;
#X connect 5 0 19 0;
#X connect 6 0 7 0;
#X connect 7 0 8 0;
#X connect 8 0 9 0;
#X connect 9 0 10 0;
#X connect 10 0 14 0;
#X connect 11 0 13 0;
#X connect 12 0 10 1;
#X connect 13 0 12 0;
#X connect 14 0 15 0;
#X connect 14 0 15 1;
#X connect 17 0 6 0;
#X connect 18 0 17 1;
#X connect 18 0 20 0;
#X connect 19 0 17 0;
#X connect 20 0 17 0;
